#!OML:ASF F:\VICON\USERDATA\INSTALL\rory3\rory3.ASF
:FULLY-SPECIFIED
:DEGREES
90
root 0.6700188327480778 17.781051058590446 37.19660243283987 -3.1006438749321052 -5.525863419141295 -2.3633847160380372
lfemur -17.465208669778733 -2.744544714604565 -19.59633718041879
ltibia 28.51913506241086
lfoot -5.407481972520172 -0.5337530594931055
ltoes 1.6295611872057836
rfemur -0.9003268096511228 3.128990689273662 25.264825250811523
rtibia 55.31989553301724
rfoot 8.720716069737811 -0.41372242360438705
rtoes 6.847974904921923
lowerback 9.351317375961484 2.7863525890875844 2.7271635541875994
upperback 0.41829938100406205 3.9993574488092922 0.676027096429737
thorax -4.736518378496922 1.9320715728613043 -1.0965684294218034
lowerneck -16.329122857262462 -3.012652534243477 -1.9303239206867853
upperneck 20.5429580987783 -3.9853040462568825 1.5428152324844184
head 9.227292372003852 -1.8597475821028504 0.3266602003341068
lclavicle -1.7155180042027776e-15 1.1244887604411035e-15
lhumerus -37.298190244352504 9.6779277049021 79.9993428071371
lradius 18.157224466578203
lwrist 0.9200267649087039
lhand -26.593375028079038 23.603298814024054
lfingers 7.12502
lthumb -0.02728905784101432 53.5649106895536
rclavicle -1.7155180042027776e-15 1.1244887604411035e-15
rhumerus -25.828596626800444 -15.03239637579384 -81.22124835098708
rradius 28.253403631996747
rwrist 4.348882114552888
rhand -17.768572837499363 23.666604830704255
rfingers 7.12502
rthumb 8.493631101363935 -6.144840602525988
91
root 0.7185696666007513 17.82730723587042 37.98762013816722 -3.447174871680102 -5.503003219142389 -1.3367274900848063
lfemur -14.676592222368935 -2.852498514030612 -21.169344634547
ltibia 28.789138854970158
lfoot -6.98338947388284 0.473378447118157
ltoes 1.837270996680306
rfemur -5.785315752622303 2.225214241791282 23.74384438882058
rtibia 61.75235840571957
rfoot 9.15014174437573 -2.718343329140146
rtoes 9.361073343898902
lowerback 9.620492162279456 2.5914339032615885 1.7609248352468065
upperback 0.5275622671751784 3.63783936259003 0.5440620360910109
thorax -4.80434670571669 1.770491216939089 -0.6438317662686998
lowerneck -16.331104367304658 -2.9089578705524914 -1.9991642617670073
upperneck 20.536439595164165 -3.823471111249747 1.4790893773978246
head 9.22454609055693 -1.7943468280596997 0.3449991679005512
lclavicle -1.5706760403471211e-15 1.2587490746758712e-15
lhumerus -36.22331968740369 8.386727341978528 80.68256838346909
lradius 19.04789381400743
lwrist 2.2935820941770206
lhand -27.463850861086378 22.76235837683409
lfingers 7.12502
lthumb -0.8680027332034435 52.71858708795698
rclavicle -1.5706760403471211e-15 1.258749074675871e-15
rhumerus -26.242573002919404 -15.682399677452528 -81.11372120655402
rradius 27.709679747028648
rwrist 5.3342612870954405
rhand -17.53120629171034 23.317823390037898
rfingers 7.12502
rthumb 8.722715462533639 -6.484571900904708
92
root 0.7430210117350493 17.856809264573585 38.47171511104604 -3.7161961479966705 -5.334431548457719 -0.6278245565754292
lfemur -12.21246825565213 -3.1054751881466345 -22.56060060614635
ltibia 28.289361670375587
lfoot -8.707752348131258 1.3441640115063287
ltoes 1.725529357949426
rfemur -10.901205262017962 1.2798734651762014 22.642488063440318
rtibia 65.98532515803576
rfoot 5.786650695087468 -4.884224771084999
rtoes 9.801121848664259
lowerback 9.820719403893651 2.242528071011606 0.8922739523879489
upperback 0.6375894859588895 3.082293126808211 0.4905818247806053
thorax -4.846611936660515 1.5131703018864089 -0.2184821913476701
lowerneck -16.310105728362693 -2.807462191003891 -2.116549617173096
upperneck 20.54439742335812 -3.661240437615206 1.4025477608805237
head 9.220630687710305 -1.7297687200098713 0.3652330043810505
lclavicle -1.7740085032096806e-15 1.0721138226577423e-15
lhumerus -34.907720084750885 6.811928831769281 81.328994262099
lradius 19.790425656227967
lwrist 3.170403058381236
lhand -28.21296962472308 21.697477810988723
lfingers 7.12502
lthumb -1.5915113193724264 51.65172435104986
rclavicle -1.7740085032096806e-15 1.0721138226577423e-15
rhumerus -26.633057015473128 -16.395702386912674 -81.06069634534553
rradius 27.119731035445874
rwrist 6.067855931283337
rhand -17.323094000245245 22.83923675926324
rfingers 7.12502
rthumb 8.923554863100215 -6.953450519425585
93
root 0.7483312334549788 17.868520162641268 38.85525001539902 -3.8917641193885397 -4.929364868184993 -0.15202372156130473
lfemur -10.03364261980882 -3.415640275466294 -23.74967024696287
ltibia 27.586075173412578
lfoot -10.415891623454542 1.9425253280100885
ltoes 1.454214482563422
rfemur -15.796999000022549 0.40842144265002034 21.953916993964857
rtibia 67.59398026881618
rfoot 0.7229570412454986 -6.172796653194867
rtoes 8.791546670853693
lowerback 9.962582848525498 1.7798868489252158 0.13950629329888287
upperback 0.7256433075819357 2.3874666227849524 0.5051194892344439
thorax -4.874367243249474 1.1860076376442232 0.19709952257243046
lowerneck -16.27125832785292 -2.7372402169590693 -2.295388061951107
upperneck 20.567782019540424 -3.5411915801580918 1.360306392474137
head 9.218918399144888 -1.6831749301379368 0.39873072463007175
lclavicle -2.137018154197557e-15 7.380668218300949e-16
lhumerus -33.37878383343253 5.07870447464621 81.84320084927143
lradius 20.41804898884337
lwrist 3.5576138167011813
lhand -28.58361002410331 20.94046510635078
lfingers 7.12502
lthumb -1.9494842539192687 50.896612952263965
rclavicle -2.137018154197557e-15 7.380668218300947e-16
rhumerus -27.0881899992074 -17.01228384345513 -81.018727127855
rradius 26.673000407360608
rwrist 6.326995230603849
rhand -17.17303792250577 22.384669266855273
rfingers 7.12502
rthumb 9.06835318999178 -7.399768636319343
